<svg width="78" height="78" viewBox="0 0 78 78" fill="none" xmlns="http://www.w3.org/2000/svg">
<g opacity="0.3">
<path d="M38.9913 77.5C60.2536 77.5 77.49 60.2629 77.49 39C77.49 17.7371 60.2536 0.5 38.9913 0.5C17.7291 0.5 0.492676 17.7371 0.492676 39C0.492676 60.2629 17.7291 77.5 38.9913 77.5Z" stroke="url(#paint0_linear_55_1214)"/>
<path d="M38.9939 73.8466C58.2382 73.8466 73.8388 58.2454 73.8388 39.0005C73.8388 19.7555 58.2382 4.1543 38.9939 4.1543C19.7495 4.1543 4.14893 19.7555 4.14893 39.0005C4.14893 58.2454 19.7495 73.8466 38.9939 73.8466Z" stroke="url(#paint1_linear_55_1214)"/>
<path d="M38.9925 70.9233C56.6225 70.9233 70.9145 56.6308 70.9145 39.0002C70.9145 21.3696 56.6225 7.07715 38.9925 7.07715C21.3625 7.07715 7.07056 21.3696 7.07056 39.0002C7.07056 56.6308 21.3625 70.9233 38.9925 70.9233Z" stroke="url(#paint2_linear_55_1214)"/>
<path d="M38.987 67.2689C54.5991 67.2689 67.2552 54.6123 67.2552 38.9997C67.2552 23.3871 54.5991 10.7305 38.987 10.7305C23.3749 10.7305 10.7188 23.3871 10.7188 38.9997C10.7188 54.6123 23.3749 67.2689 38.987 67.2689Z" stroke="url(#paint3_linear_55_1214)"/>
<path d="M38.9932 62.8845C52.1838 62.8845 62.8769 52.1909 62.8769 38.9999C62.8769 25.8088 52.1838 15.1152 38.9932 15.1152C25.8025 15.1152 15.1094 25.8088 15.1094 38.9999C15.1094 52.1909 25.8025 62.8845 38.9932 62.8845Z" stroke="url(#paint4_linear_55_1214)"/>
<path d="M38.9913 58.5C49.7605 58.5 58.4906 49.7695 58.4906 39C58.4906 28.2305 49.7605 19.5 38.9913 19.5C28.2221 19.5 19.4919 28.2305 19.4919 39C19.4919 49.7695 28.2221 58.5 38.9913 58.5Z" stroke="url(#paint5_linear_55_1214)"/>
</g>
<defs>
<linearGradient id="paint0_linear_55_1214" x1="25.2116" y1="25.2198" x2="66.5526" y2="76.9986" gradientUnits="userSpaceOnUse">
<stop stop-color="#9384FE"/>
<stop offset="1" stop-color="#312EFE"/>
</linearGradient>
<linearGradient id="paint1_linear_55_1214" x1="26.5391" y1="26.5453" x2="63.905" y2="73.3453" gradientUnits="userSpaceOnUse">
<stop stop-color="#9384FE"/>
<stop offset="1" stop-color="#312EFE"/>
</linearGradient>
<linearGradient id="paint2_linear_55_1214" x1="27.5977" y1="27.605" x2="61.7836" y2="70.4221" gradientUnits="userSpaceOnUse">
<stop stop-color="#9384FE"/>
<stop offset="1" stop-color="#312EFE"/>
</linearGradient>
<linearGradient id="paint3_linear_55_1214" x1="28.9172" y1="28.9295" x2="59.1279" y2="66.7679" gradientUnits="userSpaceOnUse">
<stop stop-color="#9384FE"/>
<stop offset="1" stop-color="#312EFE"/>
</linearGradient>
<linearGradient id="paint4_linear_55_1214" x1="30.5133" y1="30.5197" x2="55.9539" y2="62.3836" gradientUnits="userSpaceOnUse">
<stop stop-color="#9384FE"/>
<stop offset="1" stop-color="#312EFE"/>
</linearGradient>
<linearGradient id="paint5_linear_55_1214" x1="32.1014" y1="32.1099" x2="52.7719" y2="57.9993" gradientUnits="userSpaceOnUse">
<stop stop-color="#9384FE"/>
<stop offset="1" stop-color="#312EFE"/>
</linearGradient>
</defs>
</svg>
