<svg width="43" height="42" viewBox="0 0 43 42" fill="none" xmlns="http://www.w3.org/2000/svg">
<path d="M4.45454 26.6859C4.26899 26.5222 4.09435 26.3912 3.94154 26.2275C3.62502 25.9001 3.6141 25.5289 3.89789 25.2561C4.17075 24.9941 4.52003 25.005 4.84747 25.3216C5.78614 26.2384 6.71389 27.1662 7.64165 28.083C8.83136 29.2727 10.0102 30.4624 11.1889 31.6521C11.2435 31.7067 11.309 31.7613 11.3636 31.8268C11.6037 32.1215 11.5928 32.4707 11.3418 32.7109C11.1016 32.951 10.7305 32.9619 10.4577 32.7109C10.1193 32.3943 9.79186 32.0669 9.47533 31.7285C9.3771 31.6194 9.32252 31.4666 9.22429 31.3138C8.75495 32.0014 8.8641 33.0929 9.57356 33.7259C10.2612 34.3372 11.2763 34.4026 12.0294 33.8787C12.7716 33.3548 13.0663 32.4162 12.7388 31.5539C12.5533 31.0627 12.204 30.7025 11.7456 30.4624C11.2872 30.2223 11.1453 29.9058 11.3199 29.5565C11.4946 29.1963 11.8766 29.109 12.3459 29.3273C13.9286 30.1022 14.6053 32.0451 13.8412 33.6495C13.0663 35.2758 11.1453 35.9635 9.50807 35.1994C7.88177 34.4463 7.17231 32.5035 7.95818 30.8772C8.14373 30.5061 8.10007 30.2987 7.80537 30.0586C7.6089 29.9058 7.4561 29.6875 7.24872 29.4692C6.4956 30.4842 6.21181 31.5539 6.33188 32.7218C6.55017 34.872 8.25288 36.5856 10.3703 36.8257C12.5424 37.0768 14.5725 35.767 15.2711 33.6823C16.3735 30.3642 13.5138 27.1443 10.0102 27.7446C9.4535 27.8429 9.12606 27.6792 9.04965 27.2753C8.97325 26.8933 9.22429 26.6095 9.7482 26.5004C12.9026 25.8127 16.0897 27.9739 16.69 31.1937C17.2903 34.4245 15.0528 37.6007 11.8438 38.0591C8.13281 38.6048 4.91296 35.7779 5.02211 32.056C5.05485 30.8881 5.39321 29.9603 6.36462 28.4541C6.21182 28.3559 6.01535 28.2576 5.85163 28.1157C5.68791 27.9739 5.56784 27.7883 5.41504 27.5918C4.50911 28.6615 3.9852 29.7966 3.77782 31.0736C3.17751 34.9593 5.58967 38.4848 9.42076 39.3252C13.4483 40.2093 17.5086 37.3605 18.0434 33.2675C18.6219 28.7815 15.1619 24.9177 10.6432 25.0705C9.84643 25.1033 9.04965 25.3871 8.25288 25.5508C8.18739 25.5617 8.1219 25.6054 8.06732 25.6272C7.61982 25.7909 7.29238 25.6818 7.13957 25.3216C6.98676 24.9614 7.13957 24.6339 7.57616 24.4484C8.74404 23.9354 9.97741 23.7062 11.2435 23.7717C15.0091 23.9463 18.1198 26.4458 19.1131 30.0695C20.4665 34.9811 17.0393 40.1002 11.9966 40.6896C7.35787 41.2353 3.25391 38.1901 2.51171 33.584C2.12969 31.2046 2.70818 29.0435 4.14893 27.1116C4.21441 26.9806 4.31265 26.8715 4.45454 26.6859Z" fill="url(#paint0_linear_55_1221)"/>
<path d="M28.3153 3.03367C28.5336 3.15373 28.7629 3.21922 28.9266 3.37203C29.5269 3.89593 30.1272 4.05966 30.8585 3.60124C31.0877 3.45934 31.2405 3.36111 31.2842 3.07733C31.3387 2.73897 31.437 2.41153 31.5025 2.08408C31.5789 1.69115 31.819 1.49469 32.2119 1.48377C32.8341 1.47286 33.4671 1.47286 34.0893 1.48377C34.4604 1.48377 34.7005 1.66932 34.7878 2.05134C34.8642 2.42244 34.9297 2.80446 35.0388 3.16465C35.0825 3.31745 35.2462 3.43751 35.3772 3.55758C35.4427 3.61215 35.5627 3.61215 35.6392 3.66672C36.1958 4.07057 36.687 3.91776 37.1563 3.51392C37.2873 3.39386 37.451 3.31745 37.6038 3.23013C37.9094 3.04458 38.2041 3.06641 38.4661 3.31745C38.9245 3.76496 39.372 4.22338 39.8304 4.6818C40.1033 4.95467 40.1251 5.26028 39.9287 5.57681C39.7322 5.89334 39.5466 6.20986 39.3283 6.50456C39.1755 6.71194 39.2301 6.87566 39.2847 7.10487C39.4811 7.92348 40.016 8.22909 40.8127 8.32733C41.5659 8.41465 41.6532 8.6002 41.6532 9.36423C41.6532 9.87722 41.6532 10.4011 41.6532 10.9141C41.6532 11.3289 41.4785 11.5908 41.0638 11.6672C40.9874 11.6782 40.9001 11.7109 40.8237 11.7218C39.6667 11.9729 39.6667 11.9729 39.241 13.0752C39.1974 13.1844 39.2301 13.3699 39.2956 13.4791C39.4811 13.7956 39.6885 14.1012 39.885 14.4068C40.136 14.8107 40.1142 15.0727 39.7977 15.4001C39.3829 15.8258 38.9463 16.2514 38.5316 16.6771C38.2369 16.9718 37.9203 17.0155 37.5711 16.7863C37.4947 16.7317 37.4073 16.6771 37.3309 16.6335C36.3595 16.0113 36.3486 16.0004 35.3008 16.5025C35.1916 16.5571 35.0934 16.7099 35.0498 16.8299C34.9406 17.2119 34.8751 17.6049 34.7878 17.9869C34.7114 18.3362 34.4822 18.5217 34.122 18.5217C33.478 18.5217 32.845 18.5217 32.201 18.5217C31.8408 18.5217 31.6116 18.3471 31.5243 17.9978C31.5025 17.9105 31.4588 17.8123 31.4588 17.7249C31.437 16.8627 31.0222 16.3169 30.1599 16.1532C30.0181 16.1314 29.8325 16.1205 29.7234 16.186C29.385 16.3715 29.0794 16.5898 28.7519 16.7972C28.4027 17.0264 28.0861 16.9936 27.7914 16.699C27.3548 16.2624 26.9292 15.8258 26.4926 15.4001C26.2088 15.1163 26.1761 14.8107 26.3944 14.4723C26.4271 14.4178 26.4598 14.3523 26.5035 14.2977C27.082 13.6756 27.2566 13.0098 26.7218 12.2785C26.6126 12.1366 26.4598 11.9838 26.2961 11.9292C25.9468 11.8091 25.5867 11.7546 25.2265 11.6782C24.8554 11.6018 24.6698 11.3616 24.6589 10.9796C24.6589 10.3356 24.648 9.70259 24.6589 9.05862C24.6589 8.69843 24.8554 8.46922 25.2046 8.39282C25.3029 8.37099 25.3902 8.33824 25.4775 8.32733C26.2634 8.28367 26.82 7.98897 27.0056 7.13762C27.0602 6.89749 27.1256 6.72286 26.9619 6.50456C26.7436 6.20986 26.5581 5.89334 26.3616 5.57681C26.1761 5.27119 26.1979 4.9765 26.4489 4.71454C26.9073 4.24521 27.3658 3.77587 27.8351 3.32837C27.9552 3.17556 28.1298 3.1319 28.3153 3.03367ZM33.6308 17.1901C33.6963 16.8845 33.7836 16.6007 33.8273 16.306C33.9037 15.7275 34.1657 15.3455 34.7878 15.2691C34.9406 15.2473 35.1152 15.1927 35.2462 15.0945C36.1085 14.4614 36.8944 14.5924 37.6475 15.28C37.833 15.4438 37.9858 15.4001 38.1277 15.2255C38.215 15.1163 38.3569 15.0508 38.4006 14.9308C38.4552 14.8107 38.4879 14.6361 38.4333 14.5269C38.3024 14.265 38.1277 14.0139 37.9531 13.7738C37.702 13.4354 37.713 13.1298 37.9094 12.7587C38.1386 12.333 38.3242 11.8746 38.477 11.4053C38.5971 11.0233 38.8153 10.805 39.2083 10.7395C39.5903 10.674 39.9723 10.5758 40.3325 10.4885C40.3325 10.1392 40.3325 9.83356 40.3325 9.50612C39.9287 9.4188 39.5357 9.32057 39.1428 9.24417C38.7935 9.17868 38.608 8.98221 38.4879 8.64386C38.3133 8.14178 38.1059 7.65061 37.8658 7.18128C37.702 6.86475 37.6911 6.59188 37.8985 6.3081C38.1386 5.95882 38.3569 5.60955 38.5534 5.30394C38.2914 5.04198 38.0841 4.81277 37.8548 4.58356C37.5383 4.79094 37.2109 4.98741 36.8944 5.20571C36.5669 5.43492 36.2722 5.43492 35.912 5.24936C35.4645 5.02015 34.9952 4.8346 34.5258 4.67088C34.1766 4.55082 33.9692 4.36527 33.8928 4.00508C33.8164 3.60124 33.7182 3.2083 33.6308 2.80446C33.2925 2.80446 32.9869 2.80446 32.6485 2.80446C32.5612 3.21922 32.463 3.61215 32.3866 4.016C32.3211 4.35435 32.1246 4.55082 31.7862 4.67088C31.2842 4.84552 30.793 5.04198 30.3237 5.27119C30.0071 5.424 29.7343 5.44583 29.4505 5.24936C29.1012 5.00924 28.7519 4.79094 28.3481 4.53991C28.1953 4.71454 28.0752 4.88918 27.9224 5.02015C27.7369 5.18388 27.7041 5.32577 27.8678 5.53315C28.0643 5.78419 28.2062 6.05706 28.3808 6.31901C28.5773 6.61371 28.5664 6.87566 28.4136 7.19219C28.1735 7.66153 27.977 8.16361 27.8024 8.65477C27.6823 8.98221 27.4967 9.17868 27.1475 9.24417C26.7545 9.32057 26.3507 9.4188 25.9468 9.51704C25.9468 9.85539 25.9468 10.161 25.9468 10.4885C26.3289 10.5758 26.7 10.674 27.0711 10.7395C27.4858 10.8159 27.715 11.0342 27.8133 11.4489C27.8788 11.7109 27.9552 11.9838 28.0861 12.213C28.7519 13.4136 28.7301 13.1626 27.9006 14.4178C27.715 14.7015 27.7478 14.8653 27.9879 15.0617C28.2062 15.2364 28.3481 15.5747 28.7192 15.2582C28.9266 15.0836 29.1885 14.9744 29.4068 14.8107C29.7234 14.5815 30.0181 14.5924 30.3564 14.767C30.8039 14.9962 31.2732 15.1927 31.7426 15.3455C32.1246 15.4656 32.3429 15.6839 32.4084 16.0768C32.4739 16.4479 32.5721 16.819 32.6594 17.201C32.9869 17.1901 33.3034 17.1901 33.6308 17.1901Z" fill="url(#paint1_linear_55_1221)"/>
<path d="M16.9815 13.2063C15.77 11.8092 15.4425 10.1829 15.4534 8.42567C15.4643 5.46777 13.0194 2.91371 10.0506 2.70633C6.99448 2.48804 4.20031 4.64916 3.73097 7.59615C3.14157 11.329 5.95758 14.5598 9.73409 14.5161C10.4217 14.5052 11.1203 14.5925 11.797 14.7017C12.2554 14.7671 12.4737 15.1273 12.3864 15.4875C12.2881 15.8804 11.9498 16.0223 11.4805 15.9459C10.9784 15.8586 10.4545 15.7822 9.94147 15.7931C5.63014 15.9569 2.19199 12.5405 2.35571 8.2292C2.48669 4.84563 5.28087 1.85498 8.65353 1.48388C12.5283 1.0582 15.8573 3.48128 16.6104 7.29053C16.7195 7.84719 16.7305 8.42567 16.7305 9.00415C16.7414 10.4776 17.1998 11.7547 18.324 12.7588C18.6624 13.0644 18.968 13.3919 19.2736 13.7193C20.0267 14.5161 20.0485 15.6512 19.2954 16.448C18.6733 17.1029 18.0402 17.736 17.3744 18.3472C16.5776 19.0894 15.4862 19.0785 14.6785 18.3363C14.3838 18.0634 14.1109 17.7796 13.8271 17.5067C13.4342 17.1247 13.4233 16.7755 13.8162 16.3825C14.7549 15.4329 15.7045 14.4943 16.654 13.5447C16.7632 13.4355 16.8614 13.3373 16.9815 13.2063ZM17.9747 14.1123C16.9706 15.0837 16.0319 15.9787 15.0823 16.8846C15.2351 17.0483 15.3006 17.1138 15.3661 17.1793C15.9118 17.725 16.1847 17.725 16.7305 17.1902C17.2653 16.6663 17.8001 16.1424 18.324 15.6076C18.6624 15.2583 18.6624 14.92 18.3458 14.5598C18.2258 14.4288 18.1166 14.2869 17.9747 14.1123Z" fill="url(#paint2_linear_55_1221)"/>
<path d="M33.1381 40.7879C28.663 40.766 25.0284 37.3497 24.6573 32.8201C24.308 28.5852 27.4296 24.634 31.6864 23.9027C33.8039 23.5426 35.7794 23.9246 37.6131 25.0379C38.0606 25.3107 38.2025 25.6709 38.006 26.0093C37.8096 26.3695 37.4166 26.4022 36.9364 26.1293C32.6687 23.608 27.3423 25.7801 26.1417 30.528C25.1375 34.5119 27.7352 38.5722 31.7955 39.358C35.8231 40.133 39.7524 37.3279 40.2654 33.2567C40.3636 32.5254 40.2872 31.7614 40.2436 31.0192C40.2217 30.528 40.3745 30.2115 40.7566 30.146C41.1167 30.0914 41.4114 30.3315 41.4988 30.79C42.2628 34.9157 39.7742 39.1725 35.5066 40.4277C35.1573 40.5259 34.7971 40.6132 34.426 40.6678C34.0112 40.7224 33.5746 40.7442 33.1381 40.7879Z" fill="url(#paint3_linear_55_1221)"/>
<path d="M33.1352 33.4316C33.2553 33.3116 33.3644 33.2133 33.4736 33.1151C35.46 31.1286 37.4465 29.1421 39.433 27.1557C39.5312 27.0574 39.6186 26.9592 39.7277 26.8719C39.9897 26.6754 40.3717 26.6972 40.5791 26.9374C40.8083 27.1993 40.8192 27.4831 40.6227 27.756C40.5572 27.8542 40.459 27.9415 40.3717 28.0288C38.1887 30.2227 35.9949 32.4057 33.8119 34.5995C33.2771 35.1343 33.0151 35.1343 32.4803 34.6104C31.4216 33.5517 30.3628 32.493 29.2932 31.4342C29.0531 31.1941 28.9221 30.9322 29.064 30.5938C29.2605 30.1681 29.7734 30.1136 30.1555 30.4847C31.0396 31.3578 31.9127 32.2419 32.7859 33.1151C32.906 33.2133 33.0151 33.3116 33.1352 33.4316Z" fill="url(#paint4_linear_55_1221)"/>
<path d="M11.1117 9.7029C10.7406 10.1177 10.4459 10.4669 10.1184 10.7944C9.78005 11.1437 9.38712 11.1655 9.11425 10.8817C8.83047 10.587 8.87413 10.2377 9.2234 9.87754C9.78005 9.30997 10.3367 8.75332 10.8934 8.19666C11.33 7.76007 11.9084 7.89105 12.0612 8.46953C12.4978 10.0303 13.3383 11.351 14.4188 12.5189C14.8772 13.0101 14.9427 13.3812 14.6153 13.6759C14.2988 13.9706 13.9277 13.8723 13.4692 13.3921C12.5087 12.3661 11.7338 11.1873 11.1117 9.7029Z" fill="url(#paint5_linear_55_1221)"/>
<path d="M25.2166 2.99006C24.1469 2.92457 23.0664 2.76085 22.0076 2.80451C20.6433 2.85908 19.2789 3.08829 17.9146 3.25201C17.8382 3.26293 17.7509 3.28476 17.6745 3.29567C17.2706 3.37208 16.9541 3.19744 16.8668 2.85908C16.7685 2.48798 16.965 2.14962 17.3689 2.0623C18.1001 1.9095 18.8314 1.75669 19.5736 1.65846C21.3746 1.41833 23.1864 1.45108 24.9874 1.72395C25.1183 1.74578 25.2602 1.76761 25.3912 1.80035C25.7514 1.88767 25.9697 2.18237 25.9151 2.50981C25.8715 2.84817 25.5877 3.05555 25.2166 2.99006Z" fill="url(#paint6_linear_55_1221)"/>
<path d="M22.0169 40.832C20.9363 40.7229 19.8776 40.6247 18.8298 40.5155C18.3277 40.4609 18.0439 40.1553 18.0985 39.7624C18.164 39.3585 18.4914 39.1512 19.0044 39.2385C20.6525 39.5114 22.3116 39.5441 23.9706 39.3804C24.3308 39.3476 24.7019 39.2712 25.0621 39.2276C25.5423 39.173 25.8698 39.3804 25.9134 39.7733C25.9571 40.1335 25.6951 40.45 25.2476 40.4937C24.178 40.6247 23.0865 40.7229 22.0169 40.832Z" fill="url(#paint7_linear_55_1221)"/>
<path d="M41.7028 21.1525C41.5936 22.2112 41.5063 23.2699 41.3863 24.3177C41.3208 24.8962 40.906 25.18 40.4694 24.9835C40.0328 24.7871 40.0874 24.416 40.1201 24.0339C40.2075 22.9097 40.3275 21.7855 40.3384 20.6613C40.3494 19.8754 40.2293 19.0896 40.1311 18.3037C40.0437 17.627 40.1965 17.2668 40.655 17.2122C41.0697 17.1686 41.3317 17.4633 41.4081 18.1291C41.5063 19.1441 41.6046 20.1374 41.7028 21.1525Z" fill="url(#paint8_linear_55_1221)"/>
<path d="M2.26416 21.1089C2.47154 19.6463 2.67892 18.1728 2.8863 16.7102C2.90813 16.5574 2.9627 16.3828 3.05002 16.2518C3.22466 15.9789 3.49753 15.8916 3.80314 16.0117C4.13058 16.1426 4.23973 16.4046 4.18516 16.7429C4.0651 17.4524 3.86863 18.1619 3.82497 18.8713C3.74857 20.1047 3.75948 21.349 3.72674 22.5823C3.72674 22.7352 3.74857 22.877 3.74857 23.0299C3.74857 23.4337 3.51936 23.7066 3.15917 23.7284C2.8099 23.7502 2.5152 23.521 2.47154 23.1172C2.40605 22.4514 2.38422 21.7856 2.34056 21.1198C2.31873 21.1198 2.28599 21.1089 2.26416 21.1089Z" fill="url(#paint9_linear_55_1221)"/>
<path d="M33.1517 13.9919C30.936 13.9919 29.146 12.2128 29.146 9.9971C29.146 7.79232 30.9469 5.98047 33.1408 5.98047C35.3456 5.98047 37.1465 7.7814 37.1465 9.98619C37.1574 12.2019 35.3674 13.9919 33.1517 13.9919ZM35.8586 9.98619C35.8586 8.47995 34.6361 7.26841 33.119 7.27933C31.6346 7.29024 30.423 8.50178 30.423 9.98619C30.423 11.5033 31.6236 12.7149 33.1408 12.7149C34.658 12.704 35.8695 11.5033 35.8586 9.98619Z" fill="url(#paint10_linear_55_1221)"/>
<defs>
<linearGradient id="paint0_linear_55_1221" x1="7.81874" y1="29.1758" x2="17.059" y2="40.7639" gradientUnits="userSpaceOnUse">
<stop stop-color="#9384FE"/>
<stop offset="1" stop-color="#312EFE"/>
</linearGradient>
<linearGradient id="paint1_linear_55_1221" x1="30.0714" y1="6.90787" x2="39.3493" y2="18.4967" gradientUnits="userSpaceOnUse">
<stop stop-color="#9384FE"/>
<stop offset="1" stop-color="#312EFE"/>
</linearGradient>
<linearGradient id="paint2_linear_55_1221" x1="7.92682" y1="7.00064" x2="17.4214" y2="18.9177" gradientUnits="userSpaceOnUse">
<stop stop-color="#9384FE"/>
<stop offset="1" stop-color="#312EFE"/>
</linearGradient>
<linearGradient id="paint3_linear_55_1221" x1="30.0499" y1="29.1943" x2="39.3074" y2="40.782" gradientUnits="userSpaceOnUse">
<stop stop-color="#9384FE"/>
<stop offset="1" stop-color="#312EFE"/>
</linearGradient>
<linearGradient id="paint4_linear_55_1221" x1="32.7517" y1="29.3724" x2="36.6857" y2="36.3829" gradientUnits="userSpaceOnUse">
<stop stop-color="#9384FE"/>
<stop offset="1" stop-color="#312EFE"/>
</linearGradient>
<linearGradient id="paint5_linear_55_1221" x1="10.8056" y1="9.81922" x2="14.0191" y2="13.8354" gradientUnits="userSpaceOnUse">
<stop stop-color="#9384FE"/>
<stop offset="1" stop-color="#312EFE"/>
</linearGradient>
<linearGradient id="paint6_linear_55_1221" x1="19.7359" y1="2.07591" x2="20.0515" y2="4.05187" gradientUnits="userSpaceOnUse">
<stop stop-color="#9384FE"/>
<stop offset="1" stop-color="#312EFE"/>
</linearGradient>
<linearGradient id="paint7_linear_55_1221" x1="20.5859" y1="39.7329" x2="20.8743" y2="41.4852" gradientUnits="userSpaceOnUse">
<stop stop-color="#9384FE"/>
<stop offset="1" stop-color="#312EFE"/>
</linearGradient>
<linearGradient id="paint8_linear_55_1221" x1="40.6098" y1="19.7057" x2="42.7131" y2="20.2449" gradientUnits="userSpaceOnUse">
<stop stop-color="#9384FE"/>
<stop offset="1" stop-color="#312EFE"/>
</linearGradient>
<linearGradient id="paint9_linear_55_1221" x1="2.88062" y1="18.4354" x2="5.34411" y2="19.2035" gradientUnits="userSpaceOnUse">
<stop stop-color="#9384FE"/>
<stop offset="1" stop-color="#312EFE"/>
</linearGradient>
<linearGradient id="paint10_linear_55_1221" x1="31.6956" y1="8.53356" x2="36.0548" y2="13.9861" gradientUnits="userSpaceOnUse">
<stop stop-color="#9384FE"/>
<stop offset="1" stop-color="#312EFE"/>
</linearGradient>
</defs>
</svg>
