<svg width="18" height="18" viewBox="0 0 18 18" fill="none" xmlns="http://www.w3.org/2000/svg">
<g clip-path="url(#clip0_55_608)">
<path d="M16.5 8.30999V8.99999C16.4991 10.6173 15.9754 12.191 15.007 13.4864C14.0386 14.7817 12.6775 15.7293 11.1265 16.1879C9.57557 16.6465 7.91794 16.5914 6.40085 16.0309C4.88376 15.4704 3.58849 14.4346 2.70822 13.0778C1.82795 11.721 1.40984 10.116 1.51626 8.50223C1.62267 6.88841 2.24791 5.35223 3.29871 4.12279C4.34951 2.89335 5.76959 2.03653 7.34714 1.6801C8.92469 1.32367 10.5752 1.48674 12.0525 2.14499" stroke="url(#paint0_linear_55_608)" stroke-width="1.5" stroke-linecap="round" stroke-linejoin="round"/>
<path d="M16.5 3L9 10.5075L6.75 8.2575" stroke="url(#paint1_linear_55_608)" stroke-width="1.5" stroke-linecap="round" stroke-linejoin="round"/>
</g>
<defs>
<linearGradient id="paint0_linear_55_608" x1="6.28022" y1="6.27592" x2="14.4396" y2="16.4957" gradientUnits="userSpaceOnUse">
<stop stop-color="#9384FE"/>
<stop offset="1" stop-color="#312EFE"/>
</linearGradient>
<linearGradient id="paint1_linear_55_608" x1="9.85714" y1="5.3925" x2="13.5938" y2="11.4708" gradientUnits="userSpaceOnUse">
<stop stop-color="#9384FE"/>
<stop offset="1" stop-color="#312EFE"/>
</linearGradient>
<clipPath id="clip0_55_608">
<rect width="18" height="18" fill="white"/>
</clipPath>
</defs>
</svg>
