<svg width="24" height="24" viewBox="0 0 24 24" fill="none" xmlns="http://www.w3.org/2000/svg">
<path d="M11.9672 20.3545C9.7453 20.3545 7.52342 20.3607 5.30155 20.3526C3.31467 20.3451 1.68905 19.0076 1.2878 17.0614C1.23967 16.8264 1.2153 16.582 1.21467 16.3426C1.20967 13.4739 1.21092 10.6045 1.21155 7.73573C1.21155 7.15823 1.33717 6.60823 1.57717 6.08385C1.74092 5.7251 1.7828 5.7176 2.05592 5.99073C4.10092 8.03635 6.14967 10.0782 8.18905 12.1289C9.24092 13.1864 10.4997 13.7551 11.9928 13.7501C13.4409 13.7457 14.6772 13.2089 15.7015 12.1839C17.7465 10.1382 19.7922 8.09323 21.8372 6.04823C21.8815 6.00385 21.9247 5.95885 21.9697 5.91635C22.144 5.75073 22.2109 5.75885 22.3165 5.97073C22.5678 6.47198 22.7278 7.00385 22.7297 7.56323C22.7384 10.5339 22.7534 13.5039 22.7272 16.4745C22.7109 18.3582 21.1472 20.0639 19.2847 20.3057C19.0303 20.3389 18.7722 20.3532 18.5159 20.3539C16.3328 20.3564 14.1497 20.3545 11.9672 20.3545Z" fill="url(#paint0_linear_55_135)"/>
<path d="M11.9704 3.69232C14.1686 3.69232 16.3673 3.69607 18.5654 3.69044C19.3979 3.68857 20.1667 3.89232 20.8673 4.34482C21.1048 4.49857 21.1098 4.54669 20.9061 4.74982C18.7898 6.86732 16.6767 8.98732 14.5567 11.1004C13.1142 12.5379 10.8523 12.5511 9.40793 11.1173C7.2723 8.99794 5.15043 6.86357 3.02355 4.73482C2.83543 4.54607 2.8423 4.49732 3.07418 4.34732C3.71793 3.93232 4.4223 3.69919 5.18855 3.69732C7.44918 3.68982 9.7098 3.69482 11.9704 3.69482C11.9704 3.69419 11.9704 3.69294 11.9704 3.69232Z" fill="url(#paint1_linear_55_135)"/>
<defs>
<linearGradient id="paint0_linear_55_135" x1="8.07247" y1="10.4382" x2="14.8613" y2="23.0143" gradientUnits="userSpaceOnUse">
<stop stop-color="#9384FE"/>
<stop offset="1" stop-color="#312EFE"/>
</linearGradient>
<linearGradient id="paint1_linear_55_135" x1="8.67849" y1="6.39769" x2="11.7846" y2="14.715" gradientUnits="userSpaceOnUse">
<stop stop-color="#9384FE"/>
<stop offset="1" stop-color="#312EFE"/>
</linearGradient>
</defs>
</svg>
