<svg width="24" height="24" viewBox="0 0 24 24" fill="none" xmlns="http://www.w3.org/2000/svg">
<path d="M10.9485 23.9997C10.6005 23.9698 10.2525 23.9382 9.90441 23.9106C8.23741 23.7782 6.5962 23.5093 5.00831 22.9702C4.12706 22.6714 3.26866 22.3099 2.55968 21.6923C2.24796 21.4204 1.95441 21.0964 1.74933 20.7401C1.29757 19.9544 1.45636 19.0503 2.10558 18.3237C2.76241 17.589 3.60558 17.1378 4.51027 16.8009C5.10675 16.5788 5.72843 16.4235 6.3337 16.2237C6.49484 16.1704 6.56515 16.2173 6.64894 16.3491C7.76691 18.1034 8.89191 19.8524 10.0116 21.6056C10.4364 22.27 11.0194 22.6825 11.8163 22.7464C12.6747 22.8149 13.3948 22.5179 13.8847 21.8083C14.4776 20.9499 15.022 20.0575 15.5857 19.1792C16.1874 18.2417 16.7909 17.3054 17.3827 16.3614C17.4806 16.2056 17.5679 16.1827 17.7384 16.2278C18.7872 16.5056 19.8185 16.8261 20.7612 17.3792C21.2968 17.6933 21.7825 18.0659 22.1446 18.581C22.7464 19.4376 22.6626 20.4905 21.9519 21.2628C21.346 21.9214 20.5931 22.3485 19.7827 22.6872C18.3044 23.3054 16.7499 23.6194 15.1679 23.8063C14.5497 23.8796 13.9257 23.9095 13.3046 23.961C13.236 23.9669 13.1687 23.9856 13.1007 23.9985C12.3829 23.9997 11.6657 23.9997 10.9485 23.9997Z" fill="url(#paint0_linear_55_122)"/>
<path d="M4.30557 7.79191C4.37178 5.56652 5.10421 3.78937 6.54971 2.3298C7.74737 1.12043 9.20284 0.386248 10.8939 0.140154C12.8339 -0.142268 14.6345 0.251482 16.2657 1.32961C17.9257 2.42648 19.0208 3.95402 19.5007 5.88937C20.0339 8.03918 19.7023 10.0677 18.5105 11.9368C16.5921 14.945 14.6579 17.9433 12.7302 20.9462C12.6921 21.0054 12.6569 21.0663 12.6159 21.1226C12.3001 21.5544 11.7423 21.5591 11.4353 21.1214C11.2208 20.8155 11.028 20.4945 10.8265 20.1792C9.05284 17.4112 7.2751 14.6456 5.50733 11.8741C4.68116 10.5798 4.28331 9.15773 4.30557 7.79191ZM15.5327 7.76496C15.5321 5.83429 13.9483 4.25344 12.0183 4.25754C10.0964 4.26164 8.52315 5.83254 8.51671 7.75441C8.51026 9.68449 10.0888 11.27 12.0194 11.2736C13.9501 11.2771 15.5333 9.69562 15.5327 7.76496Z" fill="url(#paint1_linear_55_122)"/>
<defs>
<linearGradient id="paint0_linear_55_122" x1="8.20161" y1="18.6871" x2="10.567" y2="26.6866" gradientUnits="userSpaceOnUse">
<stop stop-color="#9384FE"/>
<stop offset="1" stop-color="#312EFE"/>
</linearGradient>
<linearGradient id="paint1_linear_55_122" x1="9.22599" y1="6.87036" x2="21.1004" y2="17.6049" gradientUnits="userSpaceOnUse">
<stop stop-color="#9384FE"/>
<stop offset="1" stop-color="#312EFE"/>
</linearGradient>
</defs>
</svg>
