<svg width="58" height="44" viewBox="0 0 58 44" fill="none" xmlns="http://www.w3.org/2000/svg">
<rect x="0.682617" y="31.3093" width="3.08553" height="11.9013" rx="1.54276" fill="url(#paint0_linear_55_1159)"/>
<rect x="11.7024" y="24.2566" width="3.08553" height="18.9539" rx="1.54276" fill="url(#paint1_linear_55_1159)"/>
<rect x="22.5774" y="26.158" width="3.36842" height="16.8421" rx="1.68421" fill="url(#paint2_linear_55_1159)"/>
<rect x="32.8601" y="24.2566" width="3.08553" height="18.5132" rx="1.54276" fill="url(#paint3_linear_55_1159)"/>
<rect x="43.6299" y="27.8423" width="3.36842" height="14.3158" rx="1.68421" fill="url(#paint4_linear_55_1159)"/>
<rect x="53.7351" y="24.4736" width="3.36842" height="17.6842" rx="1.68421" fill="url(#paint5_linear_55_1159)"/>
<rect x="0.682617" y="23.375" width="3.08553" height="6.17105" rx="1.54276" fill="black"/>
<rect x="11.7024" y="11.033" width="3.08553" height="11.9013" rx="1.54276" fill="black"/>
<rect x="22.7219" y="13.283" width="3.08553" height="11.9013" rx="1.54276" fill="black"/>
<rect x="32.8601" y="11.033" width="3.08553" height="11.9013" rx="1.54276" fill="black"/>
<rect x="43.8799" y="12.6843" width="3.08553" height="11.9013" rx="1.54276" fill="black"/>
<rect x="53.7351" y="0.894775" width="3.36842" height="21.8947" rx="1.68421" fill="black"/>
<defs>
<linearGradient id="paint0_linear_55_1159" x1="1.66592" y1="35.1021" x2="5.56613" y2="36.3686" gradientUnits="userSpaceOnUse">
<stop stop-color="#9384FE"/>
<stop offset="1" stop-color="#312EFE"/>
</linearGradient>
<linearGradient id="paint1_linear_55_1159" x1="12.6857" y1="30.2969" x2="16.8251" y2="31.1409" gradientUnits="userSpaceOnUse">
<stop stop-color="#9384FE"/>
<stop offset="1" stop-color="#312EFE"/>
</linearGradient>
<linearGradient id="paint2_linear_55_1159" x1="23.6508" y1="31.5252" x2="28.0797" y2="32.6347" gradientUnits="userSpaceOnUse">
<stop stop-color="#9384FE"/>
<stop offset="1" stop-color="#312EFE"/>
</linearGradient>
<linearGradient id="paint3_linear_55_1159" x1="33.8434" y1="30.1564" x2="37.9748" y2="31.0188" gradientUnits="userSpaceOnUse">
<stop stop-color="#9384FE"/>
<stop offset="1" stop-color="#312EFE"/>
</linearGradient>
<linearGradient id="paint4_linear_55_1159" x1="44.7033" y1="32.4045" x2="49.034" y2="33.6808" gradientUnits="userSpaceOnUse">
<stop stop-color="#9384FE"/>
<stop offset="1" stop-color="#312EFE"/>
</linearGradient>
<linearGradient id="paint5_linear_55_1159" x1="54.8086" y1="30.1093" x2="59.2619" y2="31.1717" gradientUnits="userSpaceOnUse">
<stop stop-color="#9384FE"/>
<stop offset="1" stop-color="#312EFE"/>
</linearGradient>
</defs>
</svg>
