<svg width="107" height="95" viewBox="0 0 107 95" fill="none" xmlns="http://www.w3.org/2000/svg">
<g opacity="0.3">
<path d="M29.6592 24.9451C32.7461 23.6828 44.0999 23.601 49.3909 23.7179L24.3974 58.1682L50.7941 94.8099H35.7103C30.0275 94.7398 24.3974 90.0471 22.2927 87.7095L0.982422 58.1682L21.8542 29.9417C23.6958 27.9255 25.8005 26.523 29.6592 24.9451Z" fill="white"/>
<path d="M78.302 1.26567C75.2151 0.0033728 63.8613 -0.078443 58.5703 0.0384367L83.5638 34.4887L57.1671 71.1305H72.2509C77.9337 71.0604 83.5638 66.3677 85.6685 64.0301L106.979 34.4887L86.107 6.26228C84.2654 4.24611 82.1606 2.84355 78.302 1.26567Z" fill="white"/>
</g>
</svg>
