<svg width="48" height="48" viewBox="0 0 48 48" fill="none" xmlns="http://www.w3.org/2000/svg">
<ellipse cx="23.995" cy="24" rx="23.9991" ry="24" fill="url(#paint0_linear_55_1206)"/>
<path d="M31.5118 35.9653C30.5936 35.9653 29.8422 35.214 29.8422 34.2958V13.7045C29.8422 12.7862 30.5936 12.0349 31.5118 12.0349C32.4301 12.0349 33.1814 12.7862 33.1814 13.7045V34.2958C33.1814 35.214 32.4301 35.9653 31.5118 35.9653ZM25.6683 34.2958V20.494C25.6683 19.5758 24.917 18.8245 23.9988 18.8245C23.0805 18.8245 22.3292 19.5758 22.3292 20.494V34.2958C22.3292 35.214 23.0805 35.9653 23.9988 35.9653C24.917 35.9653 25.6683 35.214 25.6683 34.2958ZM18.1553 34.2958V27.2836C18.1553 26.3653 17.404 25.614 16.4857 25.614C15.5675 25.614 14.8162 26.3653 14.8162 27.2836V34.2958C14.8162 35.214 15.5675 35.9653 16.4857 35.9653C17.404 35.9653 18.1553 35.214 18.1553 34.2958Z" fill="white"/>
<defs>
<linearGradient id="paint0_linear_55_1206" x1="15.292" y1="15.2967" x2="41.4021" y2="47.9991" gradientUnits="userSpaceOnUse">
<stop stop-color="#9384FE"/>
<stop offset="1" stop-color="#312EFE"/>
</linearGradient>
</defs>
</svg>
