<svg width="42" height="42" viewBox="0 0 42 42" fill="none" xmlns="http://www.w3.org/2000/svg">
<path d="M31.7114 3H10.2886C8.35617 3.00216 6.50356 3.77076 5.13716 5.13716C3.77076 6.50356 3.00216 8.35617 3 10.2886V31.7114C3.00216 33.6438 3.77076 35.4964 5.13716 36.8628C6.50356 38.2292 8.35617 38.9978 10.2886 39H31.7114C33.6438 38.9978 35.4964 38.2292 36.8628 36.8628C38.2292 35.4964 38.9978 33.6438 39 31.7114V10.2879C38.9977 8.35561 38.229 6.50317 36.8626 5.13692C35.4962 3.77066 33.6437 3.00216 31.7114 3ZM36.2753 31.7108C36.2742 32.9208 35.793 34.081 34.9374 34.9367C34.0817 35.7924 32.9215 36.2735 31.7114 36.2746H10.2886C9.07847 36.2735 7.91827 35.7924 7.06261 34.9367C6.20696 34.081 5.72577 32.9208 5.72469 31.7108V10.2879C5.72577 9.07779 6.20696 7.91758 7.06261 7.06193C7.91827 6.20627 9.07847 5.72509 10.2886 5.72401H31.7114C32.9215 5.72509 34.0817 6.20627 34.9374 7.06193C35.793 7.91758 36.2742 9.07779 36.2753 10.2879V31.7108Z" fill="white"/>
<path d="M20.5178 13.4554C20.4182 13.2016 20.2483 12.983 20.0289 12.8261C19.8095 12.6692 19.5501 12.5809 19.2824 12.5719C19.0146 12.563 18.7502 12.6338 18.5212 12.7756C18.2922 12.9175 18.1086 13.1243 17.9929 13.3709L13.8453 22.2129C13.7515 22.3458 13.6814 22.4945 13.6383 22.6523L11.1354 27.983C11.0571 28.1498 11.0118 28.3307 11.002 28.5154C10.9922 28.7 11.0182 28.8849 11.0784 29.0593C11.1386 29.2337 11.2319 29.3944 11.353 29.532C11.474 29.6696 11.6204 29.7816 11.7839 29.8615C11.9473 29.9414 12.1246 29.9876 12.3055 29.9976C12.4865 30.0076 12.6676 29.9811 12.8385 29.9196C13.0094 29.8582 13.1668 29.7629 13.3016 29.6394C13.4365 29.5159 13.5462 29.3664 13.6245 29.1996L15.8583 24.4393H21.8604L23.6989 29.1159C23.8351 29.4625 24.1007 29.7398 24.4372 29.8866C24.7738 30.0335 25.1536 30.0378 25.4933 29.8988C25.833 29.7598 26.1047 29.4887 26.2485 29.1453C26.3924 28.8018 26.3967 28.4141 26.2605 28.0675L20.5178 13.4554ZM17.1795 21.6229L19.1277 17.4793L20.7572 21.625L17.1795 21.6229ZM29.6202 12C29.2543 12 28.9033 12.1484 28.6446 12.4124C28.3858 12.6765 28.2404 13.0347 28.2404 13.4082V14.1616C28.2404 14.535 28.3858 14.8932 28.6446 15.1573C28.9033 15.4214 29.2543 15.5698 29.6202 15.5698C29.9862 15.5698 30.3371 15.4214 30.5959 15.1573C30.8546 14.8932 31 14.535 31 14.1616V13.4082C31 13.0347 30.8546 12.6765 30.5959 12.4124C30.3371 12.1484 29.9862 12 29.6202 12ZM29.6202 16.7463C29.2543 16.7463 28.9033 16.8947 28.6446 17.1588C28.3858 17.4228 28.2404 17.781 28.2404 18.1545V28.5913C28.2404 28.9648 28.3858 29.323 28.6446 29.587C28.9033 29.8511 29.2543 29.9995 29.6202 29.9995C29.9862 29.9995 30.3371 29.8511 30.5959 29.587C30.8546 29.323 31 28.9648 31 28.5913V18.1545C31 17.781 30.8546 17.4228 30.5959 17.1588C30.3371 16.8947 29.9862 16.7463 29.6202 16.7463Z" fill="white"/>
</svg>
