<svg width="24" height="24" viewBox="0 0 24 24" fill="none" xmlns="http://www.w3.org/2000/svg">
<path d="M17.6297 22.4631C16.7353 22.3831 15.9516 22.1856 15.1853 21.9175C12.9503 21.1356 10.9866 19.8875 9.17406 18.3875C6.66281 16.3081 4.56781 13.8787 3.03156 10.99C2.36281 9.7325 1.86344 8.41313 1.60781 7.00438C1.52406 6.5425 1.57094 6.145 1.84719 5.74813C2.80031 4.38313 3.83906 3.09375 5.06594 1.9625C5.19719 1.84188 5.34156 1.7325 5.49031 1.63375C5.78219 1.43938 5.98594 1.45188 6.25094 1.68375C6.37344 1.79063 6.49094 1.90938 6.58469 2.04188C7.54031 3.39063 8.42656 4.78313 9.13593 6.27938C9.51906 7.0875 9.48093 7.22563 8.80968 7.82313C8.36718 8.21688 7.92656 8.61188 7.48031 9.00063C7.35656 9.10813 7.34219 9.21438 7.38844 9.36875C8.01344 11.4431 9.17969 13.1606 10.8297 14.5481C11.9622 15.5 13.2272 16.2206 14.6641 16.6187C14.8041 16.6575 14.8953 16.6419 14.9897 16.5338C15.3641 16.1056 15.7478 15.6862 16.1209 15.2575C16.7691 14.5131 16.9116 14.47 17.7928 14.8969C19.2403 15.5981 20.6034 16.4438 21.9078 17.3813C22.6553 17.9188 22.6847 18.2313 22.0653 18.9062C20.8791 20.1987 19.5347 21.3075 18.0628 22.2606C17.9103 22.3575 17.7322 22.4156 17.6297 22.4631Z" fill="url(#paint0_linear_55_128)"/>
<path d="M12.7812 2.98663C12.7812 2.48163 12.7812 2.00726 12.7812 1.53226C17.6262 1.33101 22.5431 5.57538 22.4894 11.2135C22.0037 11.2135 21.5181 11.2135 21.0169 11.2135C20.965 8.96038 20.1856 7.00788 18.5912 5.41288C16.9969 3.81788 15.0463 3.03663 12.7812 2.98663Z" fill="url(#paint1_linear_55_128)"/>
<path d="M18.7422 11.2227C18.2509 11.2227 17.7766 11.2227 17.3072 11.2227C17.0191 8.50084 15.5259 6.99584 12.7891 6.69521C12.7891 6.23521 12.7891 5.74896 12.7891 5.26334C15.9397 5.16396 18.8184 7.93334 18.7422 11.2227Z" fill="url(#paint2_linear_55_128)"/>
<defs>
<linearGradient id="paint0_linear_55_128" x1="8.2407" y1="8.17923" x2="19.6489" y2="22.4451" gradientUnits="userSpaceOnUse">
<stop stop-color="#9384FE"/>
<stop offset="1" stop-color="#312EFE"/>
</linearGradient>
<linearGradient id="paint1_linear_55_128" x1="15.8752" y1="4.61281" x2="21.1426" y2="11.2243" gradientUnits="userSpaceOnUse">
<stop stop-color="#9384FE"/>
<stop offset="1" stop-color="#312EFE"/>
</linearGradient>
<linearGradient id="paint2_linear_55_128" x1="14.6867" y1="7.16071" x2="17.9306" y2="11.2188" gradientUnits="userSpaceOnUse">
<stop stop-color="#9384FE"/>
<stop offset="1" stop-color="#312EFE"/>
</linearGradient>
</defs>
</svg>
