<svg width="42" height="42" viewBox="0 0 42 42" fill="none" xmlns="http://www.w3.org/2000/svg">
<path d="M13.8141 31.5C13.0266 32.6878 11.7207 33.4228 10.3032 33.4228C8.8857 33.4228 7.57977 32.6878 6.79883 31.5C3.49789 33.2653 1.2732 37.3341 1.05664 42H19.5563C19.3398 37.3341 17.1151 33.2653 13.8141 31.5Z" fill="white"/>
<path d="M10.3096 30.1743C12.2414 30.1743 13.8074 28.6083 13.8074 26.6765C13.8074 24.7447 12.2414 23.1787 10.3096 23.1787C8.37779 23.1787 6.81177 24.7447 6.81177 26.6765C6.81177 28.6083 8.37779 30.1743 10.3096 30.1743Z" fill="white"/>
<path d="M7.10074 14.07H10.1851C10.5657 14.07 10.8807 14.3522 10.9267 14.7394L11.1695 16.8L14.9692 14.1947C15.0873 14.1094 15.2382 14.07 15.3892 14.07H27.7201C28.2648 14.07 28.7176 13.6172 28.7176 13.0659V1.00406C28.7176 0.44625 28.2648 0 27.7201 0H7.10074C6.54949 0 6.09668 0.452813 6.09668 1.00406V13.0659C6.09668 13.6172 6.54949 14.07 7.10074 14.07ZM10.5592 2.94H24.2551C24.6751 2.94 25.0032 3.27469 25.0032 3.68813C25.0032 4.10156 24.6751 4.43625 24.2551 4.43625H10.5592C10.3608 4.43625 10.1705 4.35743 10.0302 4.21713C9.88987 4.07683 9.81105 3.88654 9.81105 3.68813C9.81105 3.48971 9.88987 3.29942 10.0302 3.15912C10.1705 3.01882 10.3608 2.94 10.5592 2.94ZM10.5592 6.6675H24.2551C24.6751 6.6675 25.0032 7.00219 25.0032 7.41563C25.0032 7.82906 24.6751 8.16375 24.2551 8.16375H10.5592C10.4609 8.16375 10.3637 8.1444 10.2729 8.1068C10.1821 8.06921 10.0996 8.0141 10.0302 7.94463C9.96071 7.87516 9.9056 7.79269 9.868 7.70192C9.83041 7.61115 9.81105 7.51387 9.81105 7.41563C9.81105 7.31738 9.83041 7.2201 9.868 7.12933C9.9056 7.03856 9.96071 6.95609 10.0302 6.88662C10.0996 6.81715 10.1821 6.76205 10.2729 6.72445C10.3637 6.68685 10.4609 6.6675 10.5592 6.6675ZM10.5592 10.395H24.2551C24.6751 10.395 25.0032 10.7297 25.0032 11.1431C25.0032 11.5566 24.6751 11.8913 24.2551 11.8913H10.5592C10.3608 11.8913 10.1705 11.8124 10.0302 11.6721C9.88987 11.5318 9.81105 11.3415 9.81105 11.1431C9.81105 10.9447 9.88987 10.7544 10.0302 10.6141C10.1705 10.4738 10.3608 10.395 10.5592 10.395Z" fill="white"/>
<path d="M39.946 11.8978H30.2204V13.066C30.2204 14.4441 29.1048 15.5728 27.7201 15.5728H18.4998V24.3863C18.4998 24.9441 18.9526 25.3903 19.5038 25.3903H31.9004C32.071 25.3903 32.2285 25.4428 32.3663 25.5478L36.0544 28.396L36.3629 26.04C36.4154 25.666 36.7304 25.3903 37.1044 25.3903H39.9394C40.4841 25.3903 40.9369 24.9375 40.9369 24.3863V12.9019C40.9435 12.3441 40.4907 11.8978 39.946 11.8978ZM37.3144 23.2706H22.1354C21.937 23.2706 21.7467 23.1918 21.6064 23.0515C21.4661 22.9112 21.3873 22.7209 21.3873 22.5225C21.3873 22.3241 21.4661 22.1338 21.6064 21.9935C21.7467 21.8532 21.937 21.7744 22.1354 21.7744H37.3144C37.5129 21.7744 37.7031 21.8532 37.8434 21.9935C37.9837 22.1338 38.0626 22.3241 38.0626 22.5225C38.0626 22.7209 37.9837 22.9112 37.8434 23.0515C37.7031 23.1918 37.5129 23.2706 37.3144 23.2706ZM37.3144 19.5431H22.1354C21.7219 19.5431 21.3873 19.215 21.3873 18.795C21.3873 18.3816 21.7219 18.0469 22.1354 18.0469H37.3144C37.7279 18.0469 38.0626 18.3816 38.0626 18.795C38.0626 19.215 37.7279 19.5431 37.3144 19.5431ZM37.3144 15.8222H32.4976C32.0841 15.8222 31.7494 15.4875 31.7494 15.0741C31.7494 14.6541 32.0841 14.326 32.4976 14.326H37.3144C37.7279 14.326 38.0626 14.6541 38.0626 15.0741C38.0626 15.4875 37.7279 15.8222 37.3144 15.8222Z" fill="white"/>
</svg>
