<svg width="36" height="36" viewBox="0 0 36 36" fill="none" xmlns="http://www.w3.org/2000/svg">
<rect x="0.5" y="0.5" width="35" height="35" rx="17.5" stroke="url(#paint0_linear_55_149)"/>
<path d="M27 12.6589C26.3363 12.9396 25.6268 13.1292 24.8792 13.2167C25.6421 12.7792 26.2295 12.0865 26.5041 11.2625C25.7908 11.6672 25.0013 11.9625 24.1583 12.1193C23.4832 11.4302 22.5219 11 21.4615 11C19.4209 11 17.7692 12.5823 17.7692 14.5328C17.7692 14.8099 17.7997 15.0797 17.8646 15.3385C14.794 15.1927 12.0706 13.7854 10.2511 11.6453C9.93452 12.1667 9.75143 12.7755 9.75143 13.4208C9.75143 14.6458 10.4075 15.7286 11.3992 16.363C10.7889 16.3484 10.2168 16.188 9.72092 15.9219V15.9656C9.72092 17.6792 10.9949 19.1047 12.6847 19.4292C12.3757 19.5094 12.0477 19.5531 11.712 19.5531C11.4755 19.5531 11.2428 19.5312 11.0178 19.4875C11.487 20.8911 12.8525 21.912 14.4698 21.9411C13.2072 22.8891 11.6128 23.4542 9.88112 23.4542C9.5836 23.4542 9.28989 23.4359 9 23.4031C10.6287 24.4167 12.5702 25 14.6529 25C21.4539 25 25.1691 19.6151 25.1691 14.9448C25.1691 14.7917 25.1653 14.6385 25.1577 14.4891C25.8786 13.9896 26.5041 13.3698 27 12.6589Z" fill="url(#paint1_linear_55_149)"/>
<defs>
<linearGradient id="paint0_linear_55_149" x1="11.4725" y1="11.4725" x2="31.0549" y2="36" gradientUnits="userSpaceOnUse">
<stop stop-color="#9384FE"/>
<stop offset="1" stop-color="#312EFE"/>
</linearGradient>
<linearGradient id="paint1_linear_55_149" x1="14.7363" y1="15.4615" x2="21.7358" y2="26.7335" gradientUnits="userSpaceOnUse">
<stop stop-color="#9384FE"/>
<stop offset="1" stop-color="#312EFE"/>
</linearGradient>
</defs>
</svg>
