<svg width="42" height="42" viewBox="0 0 42 42" fill="none" xmlns="http://www.w3.org/2000/svg">
<path d="M35.4061 21.7688L35.4689 12.6597C35.4697 12.4999 35.4395 12.3415 35.3801 12.1936C35.3207 12.0458 35.2333 11.9113 35.1228 11.798C35.0123 11.6848 34.8809 11.5949 34.7363 11.5335C34.5916 11.4722 34.4365 11.4406 34.2798 11.4407H34.2778L24.2051 11.4528C24.1885 10.997 24.1374 10.5431 24.0524 10.0953L24.0038 9.84919L22.0913 9.25608C22.0535 9.156 22.0129 9.05674 21.9707 8.95912L22.1265 8.66216H28.3004V7.82213H22.567L22.9113 7.16586L22.8518 7.0748H24.9029L26.5239 5.48744H34.5061C34.6068 5.90907 34.8555 6.27845 35.2052 6.52569C35.5548 6.77294 35.9812 6.8809 36.4036 6.82917C36.826 6.77744 37.2152 6.5696 37.4975 6.24496C37.7799 5.92032 37.9358 5.50139 37.9358 5.06742C37.9358 4.63345 37.7799 4.21452 37.4975 3.88988C37.2152 3.56524 36.826 3.3574 36.4036 3.30567C35.9812 3.25394 35.5548 3.36191 35.2052 3.60915C34.8555 3.85639 34.6068 4.22577 34.5061 4.64741H26.1925L24.5716 6.23478H22.2499C21.6805 5.527 21.0069 4.9135 20.2533 4.41612L20.0325 4.2701L18.412 5.31194C18.3971 5.30538 18.3822 5.29799 18.367 5.29142L18.0135 3.35952L17.7614 3.29143C16.2945 2.90064 14.7536 2.90291 13.2879 3.298L13.0317 3.36772L12.7153 5.28732C12.6558 5.3144 12.5967 5.34146 12.5383 5.36936L10.8965 4.36198L10.679 4.5121C9.70602 5.18102 8.8761 6.04417 8.23934 7.04942L8.09378 7.27911L9.13161 8.89348C9.06446 9.04524 9.00172 9.20028 8.94422 9.35697L7.08404 9.78355L7.03016 10.0485C6.90931 10.6447 6.84841 11.2519 6.8484 11.8607H6.88786C6.68102 12.084 6.56552 12.3795 6.56491 12.6867V18.2962H1.7693C1.30022 18.2968 0.850516 18.4871 0.518827 18.8255C0.187139 19.1638 0.00055358 19.6225 0 20.101V37.1953C0.000560117 37.6737 0.187148 38.1324 0.518836 38.4708C0.850524 38.8091 1.30023 38.9994 1.7693 39H8.66113C9.13021 38.9994 9.57991 38.8091 9.9116 38.4708C10.2433 38.1324 10.4299 37.6737 10.4304 37.1953V30.5702H16.485L14.9289 34.539H26.2617L24.7049 30.5702H28.1848C28.4879 31.8572 29.1356 33.0331 30.0555 33.9666C30.9755 34.9001 32.1316 35.5546 33.3949 35.8571C34.6583 36.1596 35.9791 36.0981 37.2102 35.6796C38.4413 35.2611 39.5342 34.502 40.367 33.4869C41.1999 32.4718 41.7399 31.2407 41.9269 29.9309C42.1139 28.621 41.9405 27.284 41.426 26.0688C40.9115 24.8536 40.0763 23.8081 39.0133 23.0488C37.9503 22.2896 36.7015 21.8464 35.4061 21.7688ZM36.1915 4.13303C36.3727 4.13303 36.5499 4.18787 36.7006 4.2906C36.8513 4.39334 36.9688 4.53935 37.0381 4.71018C37.1075 4.88102 37.1256 5.06899 37.0902 5.25033C37.0548 5.43167 36.9675 5.59823 36.8393 5.72894C36.7111 5.85966 36.5478 5.94865 36.37 5.98467C36.1922 6.02069 36.0079 6.00212 35.8405 5.93131C35.673 5.86049 35.5299 5.74062 35.4293 5.58684C35.3286 5.43306 35.275 5.25229 35.275 5.0674C35.2753 4.81961 35.372 4.58207 35.5438 4.4069C35.7156 4.23173 35.9485 4.13324 36.1915 4.13303ZM9.5727 10.074L9.6467 9.85001C9.7369 9.57532 9.84545 9.30726 9.9716 9.04771L10.0766 8.83197L9.07933 7.27988C9.58442 6.53835 10.2089 5.88934 10.9262 5.36031L12.5021 6.3275L12.706 6.22165C12.8781 6.13141 13.0545 6.04964 13.2352 5.97637L13.4511 5.88941L13.7555 4.04529C14.922 3.77337 16.1334 3.77168 17.3005 4.04037L17.6395 5.89351L17.8482 5.97965C17.9882 6.0379 18.1261 6.09942 18.2604 6.16669L18.4667 6.26923L20.022 5.27005C20.7708 5.79981 21.4234 6.45854 21.9506 7.21673L21.0495 8.93452L21.1395 9.12647C21.233 9.3259 21.3162 9.53017 21.3888 9.73845L21.4584 9.93779L23.2896 10.5055C23.3396 10.8194 23.3714 11.136 23.3847 11.4538L20.1194 11.4577C20.0212 10.3047 19.5024 9.23127 18.6656 8.44962C17.8289 7.66798 16.735 7.23504 15.6004 7.23641C14.4658 7.23779 13.373 7.67337 12.538 8.45704C11.7031 9.2407 11.1868 10.3154 11.0913 11.4687L7.75473 11.4727C7.73186 11.4727 7.71045 11.4782 7.68789 11.4795C7.701 11.1457 7.7342 10.813 7.7873 10.4833L9.5727 10.074ZM19.2761 11.4587L11.9343 11.4676C12.0246 10.5392 12.4499 9.67817 13.1274 9.0515C13.805 8.42482 14.6866 8.07722 15.6013 8.07611C16.5159 8.07501 17.3983 8.42048 18.0774 9.04552C18.7564 9.67055 19.1836 10.5306 19.2761 11.4587ZM0.823529 20.101C0.823869 19.8452 0.923622 19.6001 1.10092 19.4192C1.27821 19.2384 1.51857 19.1366 1.7693 19.1363H8.66113C8.91186 19.1366 9.15222 19.2384 9.32952 19.4192C9.50681 19.6001 9.60656 19.8452 9.6069 20.101V20.5341H0.823529V20.101ZM9.6069 21.3742V35.265H0.823529V21.3742H9.6069ZM9.6069 37.1953C9.60656 37.451 9.50681 37.6962 9.32952 37.877C9.15222 38.0579 8.91186 38.1596 8.66113 38.16H1.7693C1.51857 38.1596 1.27821 38.0579 1.10092 37.877C0.923622 37.6962 0.823869 37.451 0.823529 37.1953V36.105H9.6069V37.1953ZM25.0449 33.699H16.1449L17.3717 30.5702H23.818L25.0449 33.699ZM24.3753 29.7302H10.4304V27.3946H28.1411C27.9753 28.1613 27.9393 28.9512 28.0346 29.7302L24.3753 29.7302ZM34.9915 35.2051C33.7683 35.2051 32.5725 34.8351 31.5554 34.1419C30.5383 33.4487 29.7456 32.4634 29.2775 31.3107C28.8093 30.1579 28.6868 28.8894 28.9254 27.6656C29.1641 26.4419 29.7531 25.3177 30.618 24.4354C31.4829 23.5531 32.5849 22.9522 33.7847 22.7087C34.9844 22.4652 36.228 22.5901 37.3581 23.0676C38.4883 23.545 39.4543 24.3535 40.1339 25.391C40.8136 26.4284 41.1764 27.6481 41.1765 28.8959C41.1747 30.5685 40.5225 32.1722 39.363 33.355C38.2035 34.5378 36.6314 35.2032 34.9915 35.2051ZM32.0549 8.66216V7.82213H33.0039V8.66216H32.0549ZM29.721 8.66216V7.82213H30.6696V8.66216H29.721ZM34.8633 27.6317C35.2501 27.6314 35.6249 27.4942 35.9237 27.2436C36.2226 26.993 36.427 26.6445 36.5022 26.2574C36.5774 25.8703 36.5186 25.4686 36.336 25.1208C36.1534 24.7729 35.8581 24.5004 35.5006 24.3496C35.1431 24.1989 34.7454 24.1793 34.3753 24.2941C34.0051 24.4089 33.6855 24.6511 33.4708 24.9794C33.2561 25.3076 33.1596 25.7017 33.1978 26.0944C33.236 26.4871 33.4065 26.8541 33.6802 27.1329C33.8356 27.2914 34.02 27.417 34.223 27.5026C34.4261 27.5882 34.6436 27.632 34.8633 27.6317ZM38.0062 32.1346H31.7204C31.7217 31.2852 32.0534 30.4711 32.6427 29.871C33.232 29.2709 34.0306 28.9339 34.8633 28.9339C35.6959 28.9339 36.4946 29.2709 37.0839 29.871C37.6731 30.4711 38.0048 31.2852 38.0062 32.1346ZM17.7179 24.6514H18.8326V25.4914H17.7179V24.6514ZM19.9022 24.6514H21.0169V25.4914H19.9022L19.9022 24.6514ZM14.4222 25.4914H13.3076V24.6514H14.4222V25.4914ZM15.4918 24.6514H16.6065V25.4914H15.4918V24.6514ZM24.4847 22.2142H16.434C16.3248 22.214 16.2202 22.1697 16.143 22.091C16.0658 22.0123 16.0224 21.9055 16.0222 21.7942V20.5465L19.5998 16.5465L22.7966 20.215L23.4119 19.6572L22.0073 18.0452L22.6824 17.4021L24.8965 19.686V21.7942C24.8963 21.9055 24.8529 22.0123 24.7757 22.091C24.6985 22.1697 24.5939 22.214 24.4847 22.2142ZM16.434 15.4103H24.4847C24.5939 15.4104 24.6985 15.4547 24.7757 15.5335C24.8529 15.6122 24.8963 15.7189 24.8965 15.8303V18.4913L23.2663 16.8098C23.1043 16.6531 22.8897 16.5655 22.6664 16.5647C22.4431 16.5639 22.2279 16.6501 22.0648 16.8057L21.4544 17.4111L20.2151 15.9886C20.1329 15.9011 20.0342 15.8314 19.9249 15.7837C19.8157 15.7361 19.6981 15.7114 19.5793 15.7111C19.4604 15.7109 19.3428 15.7352 19.2333 15.7824C19.1239 15.8297 19.025 15.899 18.9424 15.9862L16.0222 19.2905V15.8303C16.0224 15.7189 16.0658 15.6122 16.143 15.5335C16.2202 15.4547 16.3248 15.4104 16.434 15.4103ZM2.69497 29.8893L2.08295 29.3265L3.95278 27.2109C4.01489 27.1453 4.08934 27.0932 4.17165 27.0577C4.25397 27.0222 4.34246 27.0039 4.43184 27.0041C4.52123 27.0042 4.60966 27.0228 4.69185 27.0586C4.77405 27.0944 4.84831 27.1468 4.91021 27.2126L5.46553 27.8508L6.31399 27.2642C6.43503 27.1618 6.58966 27.11 6.74668 27.1193C6.9037 27.1286 7.05142 27.1982 7.16004 27.3143L8.33421 28.5251L7.74873 29.1157L6.68273 28.0165L6.01603 28.4816L6.57738 29.1264L5.96215 29.6842L4.42969 27.9263L2.69497 29.8893Z" fill="white"/>
</svg>
