<svg width="42" height="42" viewBox="0 0 42 42" fill="none" xmlns="http://www.w3.org/2000/svg">
<path d="M28.875 41.3438H13.125C12.951 41.3438 12.784 41.2746 12.661 41.1515C12.5379 41.0285 12.4688 40.8615 12.4688 40.6875C12.4688 40.5135 12.5379 40.3465 12.661 40.2235C12.784 40.1004 12.951 40.0312 13.125 40.0312H28.875C29.049 40.0312 29.216 40.1004 29.339 40.2235C29.4621 40.3465 29.5312 40.5135 29.5312 40.6875C29.5312 40.8615 29.4621 41.0285 29.339 41.1515C29.216 41.2746 29.049 41.3438 28.875 41.3438ZM34.7812 1.96875H7.21875C7.0447 1.96875 6.87778 2.03789 6.75471 2.16096C6.63164 2.28403 6.5625 2.45095 6.5625 2.625V7.21875H35.4375V2.625C35.4375 2.45095 35.3684 2.28403 35.2453 2.16096C35.1222 2.03789 34.9553 1.96875 34.7812 1.96875ZM20.3438 5.25H9.1875C9.01345 5.25 8.84653 5.18086 8.72346 5.05779C8.60039 4.93472 8.53125 4.7678 8.53125 4.59375C8.53125 4.4197 8.60039 4.25278 8.72346 4.12971C8.84653 4.00664 9.01345 3.9375 9.1875 3.9375H20.3438C20.5178 3.9375 20.6847 4.00664 20.8078 4.12971C20.9309 4.25278 21 4.4197 21 4.59375C21 4.7678 20.9309 4.93472 20.8078 5.05779C20.6847 5.18086 20.5178 5.25 20.3438 5.25ZM24.2812 5.90625C24.0217 5.90625 23.7679 5.82927 23.5521 5.68505C23.3362 5.54083 23.168 5.33585 23.0687 5.09602C22.9693 4.85619 22.9433 4.59229 22.994 4.33769C23.0446 4.08309 23.1696 3.84923 23.3532 3.66567C23.5367 3.48212 23.7706 3.35711 24.0252 3.30647C24.2798 3.25583 24.5437 3.28182 24.7835 3.38116C25.0233 3.4805 25.2283 3.64872 25.3726 3.86456C25.5168 4.0804 25.5938 4.33416 25.5938 4.59375C25.5938 4.94185 25.4555 5.27569 25.2093 5.52183C24.9632 5.76797 24.6293 5.90625 24.2812 5.90625ZM28.2188 5.90625C27.9592 5.90625 27.7054 5.82927 27.4896 5.68505C27.2737 5.54083 27.1055 5.33585 27.0062 5.09602C26.9068 4.85619 26.8808 4.59229 26.9315 4.33769C26.9821 4.08309 27.1071 3.84923 27.2907 3.66567C27.4742 3.48212 27.7081 3.35711 27.9627 3.30647C28.2173 3.25583 28.4812 3.28182 28.721 3.38116C28.9608 3.4805 29.1658 3.64872 29.3101 3.86456C29.4543 4.0804 29.5312 4.33416 29.5312 4.59375C29.5312 4.94185 29.393 5.27569 29.1468 5.52183C28.9007 5.76797 28.5668 5.90625 28.2188 5.90625ZM32.1562 5.90625C31.8967 5.90625 31.6429 5.82927 31.4271 5.68505C31.2112 5.54083 31.043 5.33585 30.9437 5.09602C30.8443 4.85619 30.8183 4.59229 30.869 4.33769C30.9196 4.08309 31.0446 3.84923 31.2282 3.66567C31.4117 3.48212 31.6456 3.35711 31.9002 3.30647C32.1548 3.25583 32.4187 3.28182 32.6585 3.38116C32.8983 3.4805 33.1033 3.64872 33.2476 3.86456C33.3918 4.0804 33.4688 4.33416 33.4688 4.59375C33.4688 4.94185 33.3305 5.27569 33.0843 5.52183C32.8382 5.76797 32.5043 5.90625 32.1562 5.90625ZM6.5625 8.53125V21.6562C6.5625 21.8303 6.63164 21.9972 6.75471 22.1203C6.87778 22.2434 7.0447 22.3125 7.21875 22.3125H34.7812C34.9553 22.3125 35.1222 22.2434 35.2453 22.1203C35.3684 21.9972 35.4375 21.8303 35.4375 21.6562V8.53125H6.5625ZM10.3884 17.3578C10.4834 17.5025 10.5174 17.6788 10.483 17.8484C10.4486 18.0181 10.3485 18.1672 10.2047 18.2634C10.099 18.3375 9.97277 18.3765 9.84375 18.375C9.73566 18.3744 9.62938 18.3472 9.53436 18.2957C9.43934 18.2442 9.35851 18.17 9.29906 18.0797L7.98656 16.1109C7.916 16.0038 7.87839 15.8783 7.87839 15.75C7.87839 15.6217 7.916 15.4962 7.98656 15.3891L9.29906 13.4203C9.40163 13.293 9.54805 13.2085 9.70963 13.1835C9.87122 13.1584 10.0363 13.1946 10.1726 13.2849C10.3089 13.3753 10.4066 13.5132 10.4465 13.6718C10.4864 13.8303 10.4657 13.9981 10.3884 14.1422L9.31875 15.75L10.3884 17.3578ZM13.7812 13.3744L12.4688 18.4538C12.4315 18.5981 12.3463 18.7256 12.227 18.815C12.1077 18.9045 11.9615 18.9507 11.8125 18.9459C11.758 18.9523 11.7029 18.9523 11.6484 18.9459C11.5608 18.9269 11.4781 18.8902 11.4052 18.8379C11.3324 18.7857 11.271 18.7191 11.2249 18.6423C11.1788 18.5654 11.1489 18.4799 11.1371 18.391C11.1253 18.3022 11.1318 18.2119 11.1562 18.1256L12.4688 13.0462C12.5123 12.8774 12.6211 12.7328 12.7712 12.6442C12.9214 12.5556 13.1005 12.5302 13.2694 12.5737C13.4382 12.6173 13.5828 12.7261 13.6714 12.8762C13.7601 13.0264 13.7854 13.2055 13.7419 13.3744H13.7812ZM16.9706 16.1109L15.6581 18.0797C15.5969 18.1728 15.5129 18.2487 15.4142 18.3004C15.3154 18.3521 15.2052 18.3777 15.0938 18.375C14.9647 18.3765 14.8385 18.3375 14.7328 18.2634C14.589 18.1672 14.4889 18.0181 14.4545 17.8484C14.4201 17.6788 14.4541 17.5025 14.5491 17.3578L15.6187 15.75L14.5491 14.1422C14.4918 14.0711 14.45 13.9888 14.4263 13.9006C14.4026 13.8124 14.3976 13.7203 14.4116 13.63C14.4256 13.5398 14.4583 13.4535 14.5075 13.3766C14.5568 13.2997 14.6215 13.2339 14.6976 13.1835C14.7738 13.133 14.8596 13.099 14.9496 13.0837C15.0396 13.0683 15.1318 13.0718 15.2203 13.0941C15.3089 13.1164 15.3918 13.1569 15.4638 13.2131C15.5358 13.2693 15.5953 13.3398 15.6384 13.4203L16.9509 15.3891C17.0215 15.4962 17.0591 15.6217 17.0591 15.75C17.0591 15.8783 17.0215 16.0038 16.9509 16.1109H16.9706ZM34.125 19.0312C34.125 19.5534 33.9176 20.0542 33.5484 20.4234C33.1792 20.7926 32.6784 21 32.1562 21H21C20.4779 21 19.9771 20.7926 19.6079 20.4234C19.2387 20.0542 19.0312 19.5534 19.0312 19.0312V12.4688C19.0312 11.9466 19.2387 11.4458 19.6079 11.0766C19.9771 10.7074 20.4779 10.5 21 10.5H32.1562C32.6784 10.5 33.1792 10.7074 33.5484 11.0766C33.9176 11.4458 34.125 11.9466 34.125 12.4688V19.0312Z" fill="white"/>
<path d="M38.7188 7.87495V25.5937H3.28127V7.87495C3.27909 7.23789 3.46467 6.61431 3.81481 6.08209C4.16495 5.54988 4.66414 5.13263 5.25002 4.88245V21.6562C5.25002 22.1783 5.45744 22.6791 5.82665 23.0483C6.19586 23.4175 6.69662 23.6249 7.21877 23.6249H34.7813C35.3034 23.6249 35.8042 23.4175 36.1734 23.0483C36.5426 22.6791 36.75 22.1783 36.75 21.6562V4.88245C37.3359 5.13263 37.8351 5.54988 38.1852 6.08209C38.5354 6.61431 38.7209 7.23789 38.7188 7.87495ZM26.8341 40.0312H15.166L17.4169 33.4687H24.5831L26.8341 40.0312Z" fill="white"/>
<path d="M3.28125 26.9063V28.875C3.28125 29.7453 3.62695 30.5799 4.24231 31.1952C4.85766 31.8106 5.69226 32.1563 6.5625 32.1563H35.4375C36.3077 32.1563 37.1423 31.8106 37.7577 31.1952C38.373 30.5799 38.7188 29.7453 38.7188 28.875V26.9063H3.28125ZM21.6562 30.1875H20.3438C20.1697 30.1875 20.0028 30.1184 19.8797 29.9953C19.7566 29.8723 19.6875 29.7053 19.6875 29.5313C19.6875 29.3572 19.7566 29.1903 19.8797 29.0672C20.0028 28.9442 20.1697 28.875 20.3438 28.875H21.6562C21.8303 28.875 21.9972 28.9442 22.1203 29.0672C22.2434 29.1903 22.3125 29.3572 22.3125 29.5313C22.3125 29.7053 22.2434 29.8723 22.1203 29.9953C21.9972 30.1184 21.8303 30.1875 21.6562 30.1875ZM25.0228 19.6875H21.2691L22.9688 18.0075C23.037 17.9371 23.1202 17.8828 23.2122 17.8487C23.3042 17.8147 23.4026 17.8017 23.5003 17.8107C23.5971 17.8213 23.6902 17.8533 23.7731 17.9044C23.856 17.9554 23.9264 18.0243 23.9794 18.106L25.0228 19.6875ZM32.0053 19.6875H26.5978L25.7578 18.421L27.7266 16.0322C27.7876 15.959 27.8638 15.8999 27.9499 15.8591C28.036 15.8183 28.13 15.7968 28.2253 15.796C28.3195 15.7884 28.4141 15.8049 28.5002 15.844C28.5863 15.883 28.6611 15.9433 28.7175 16.0191L32.0053 19.6875Z" fill="white"/>
<path d="M32.1562 11.8125H21C20.826 11.8125 20.659 11.8816 20.536 12.0047C20.4129 12.1278 20.3438 12.2947 20.3438 12.4688V18.7622L22.0238 17.0625C22.2235 16.8646 22.4633 16.7119 22.7271 16.6145C22.9909 16.517 23.2724 16.4773 23.5528 16.4978C23.8333 16.5183 24.106 16.5986 24.3528 16.7334C24.5996 16.8682 24.8146 17.0542 24.9834 17.2791L26.7356 15.1791C26.9184 14.9634 27.1455 14.7897 27.4014 14.6697C27.6573 14.5496 27.9361 14.4861 28.2188 14.4834C28.4962 14.4831 28.7706 14.5414 29.0239 14.6544C29.2772 14.7675 29.5038 14.9329 29.6888 15.1397L32.8125 18.6178V12.4688C32.8125 12.2947 32.7434 12.1278 32.6203 12.0047C32.4972 11.8816 32.3303 11.8125 32.1562 11.8125ZM23.625 15.75C23.3654 15.75 23.1117 15.673 22.8958 15.5288C22.68 15.3846 22.5117 15.1796 22.4124 14.9398C22.3131 14.6999 22.2871 14.436 22.3377 14.1814C22.3884 13.9268 22.5134 13.693 22.6969 13.5094C22.8805 13.3259 23.1143 13.2009 23.3689 13.1502C23.6235 13.0996 23.8874 13.1256 24.1273 13.2249C24.3671 13.3242 24.5721 13.4925 24.7163 13.7083C24.8605 13.9242 24.9375 14.1779 24.9375 14.4375C24.9375 14.7856 24.7992 15.1194 24.5531 15.3656C24.3069 15.6117 23.9731 15.75 23.625 15.75Z" fill="white"/>
</svg>
